{
	"asset":{
		"generator":"Khronos glTF Blender I/O v5.2.39",
		"version":"2.0"
	},
	"scene":0,
	"scenes":[
		{
			"name":"Scene",
			"nodes":[
				6
			]
		}
	],
	"nodes":[
		{
			"name":"Bone_2",
			"translation":[
				0,
				1,
				0
			]
		},
		{
			"children":[
				0
			],
			"name":"Bone_1",
			"translation":[
				0,
				1,
				0
			]
		},
		{
			"children":[
				1
			],
			"name":"Bone_0"
		},
		{
			"mesh":0,
			"name":"Lower",
			"skin":0
		},
		{
			"mesh":1,
			"name":"Middle",
			"skin":0
		},
		{
			"mesh":2,
			"name":"Upper",
			"skin":0
		},
		{
			"children":[
				3,
				4,
				5,
				2
			],
			"name":"SkinnedModularRig"
		}
	],
	"materials":[
		{
			"doubleSided":true,
			"name":"SkinnedDummy",
			"pbrMetallicRoughness":{
				"baseColorFactor":[
					0.800000011920929,
					0.5,
					0.30000001192092896,
					1
				],
				"metallicFactor":0,
				"roughnessFactor":0.6000000238418579
			}
		}
	],
	"meshes":[
		{
			"name":"LowerMesh",
			"primitives":[
				{
					"attributes":{
						"POSITION":0,
						"NORMAL":1,
						"JOINTS_0":2,
						"WEIGHTS_0":3
					},
					"indices":4,
					"material":0
				}
			]
		},
		{
			"name":"MiddleMesh",
			"primitives":[
				{
					"attributes":{
						"POSITION":6,
						"NORMAL":7,
						"JOINTS_0":8,
						"WEIGHTS_0":9
					},
					"indices":4,
					"material":0
				}
			]
		},
		{
			"name":"UpperMesh",
			"primitives":[
				{
					"attributes":{
						"POSITION":10,
						"NORMAL":11,
						"JOINTS_0":12,
						"WEIGHTS_0":13
					},
					"indices":4,
					"material":0
				}
			]
		}
	],
	"skins":[
		{
			"inverseBindMatrices":5,
			"joints":[
				2,
				1,
				0
			],
			"name":"SkinnedModularRig"
		}
	],
	"accessors":[
		{
			"bufferView":0,
			"componentType":5126,
			"count":32,
			"max":[
				0.25,
				1,
				0.25
			],
			"min":[
				-0.25,
				0,
				-0.25
			],
			"type":"VEC3"
		},
		{
			"bufferView":1,
			"componentType":5126,
			"count":32,
			"type":"VEC3"
		},
		{
			"bufferView":2,
			"componentType":5121,
			"count":32,
			"type":"VEC4"
		},
		{
			"bufferView":3,
			"componentType":5126,
			"count":32,
			"type":"VEC4"
		},
		{
			"bufferView":4,
			"componentType":5123,
			"count":60,
			"type":"SCALAR"
		},
		{
			"bufferView":5,
			"componentType":5126,
			"count":3,
			"type":"MAT4"
		},
		{
			"bufferView":6,
			"componentType":5126,
			"count":32,
			"max":[
				0.25,
				2,
				0.25
			],
			"min":[
				-0.25,
				1,
				-0.25
			],
			"type":"VEC3"
		},
		{
			"bufferView":7,
			"componentType":5126,
			"count":32,
			"type":"VEC3"
		},
		{
			"bufferView":8,
			"componentType":5121,
			"count":32,
			"type":"VEC4"
		},
		{
			"bufferView":9,
			"componentType":5126,
			"count":32,
			"type":"VEC4"
		},
		{
			"bufferView":10,
			"componentType":5126,
			"count":32,
			"max":[
				0.25,
				3,
				0.25
			],
			"min":[
				-0.25,
				2,
				-0.25
			],
			"type":"VEC3"
		},
		{
			"bufferView":11,
			"componentType":5126,
			"count":32,
			"type":"VEC3"
		},
		{
			"bufferView":12,
			"componentType":5121,
			"count":32,
			"type":"VEC4"
		},
		{
			"bufferView":13,
			"componentType":5126,
			"count":32,
			"type":"VEC4"
		}
	],
	"bufferViews":[
		{
			"buffer":0,
			"byteLength":384,
			"byteOffset":0,
			"target":34962
		},
		{
			"buffer":0,
			"byteLength":384,
			"byteOffset":384,
			"target":34962
		},
		{
			"buffer":0,
			"byteLength":128,
			"byteOffset":768,
			"target":34962
		},
		{
			"buffer":0,
			"byteLength":512,
			"byteOffset":896,
			"target":34962
		},
		{
			"buffer":0,
			"byteLength":120,
			"byteOffset":1408,
			"target":34963
		},
		{
			"buffer":0,
			"byteLength":192,
			"byteOffset":1528
		},
		{
			"buffer":0,
			"byteLength":384,
			"byteOffset":1720,
			"target":34962
		},
		{
			"buffer":0,
			"byteLength":384,
			"byteOffset":2104,
			"target":34962
		},
		{
			"buffer":0,
			"byteLength":128,
			"byteOffset":2488,
			"target":34962
		},
		{
			"buffer":0,
			"byteLength":512,
			"byteOffset":2616,
			"target":34962
		},
		{
			"buffer":0,
			"byteLength":384,
			"byteOffset":3128,
			"target":34962
		},
		{
			"buffer":0,
			"byteLength":384,
			"byteOffset":3512,
			"target":34962
		},
		{
			"buffer":0,
			"byteLength":128,
			"byteOffset":3896,
			"target":34962
		},
		{
			"buffer":0,
			"byteLength":512,
			"byteOffset":4024,
			"target":34962
		}
	],
	"buffers":[
		{
			"byteLength":4536,
			"uri":"SkinnedModular.bin"
		}
	]
}
